<svg xmlns="http://www.w3.org/2000/svg" width="1024" height="1024" viewBox="0 0 1024 1024" role="img" aria-label="Blue gradient logo">
  <defs>
    <linearGradient id="blueGradient" x1="0" y1="80" x2="0" y2="840" gradientUnits="userSpaceOnUse">
      <stop offset="0%" stop-color="#28E4FF"/>
      <stop offset="48%" stop-color="#168EFF"/>
      <stop offset="100%" stop-color="#244DFF"/>
    </linearGradient>
  </defs>
  <path d="M 500 87 L 491 90 L 485 94 L 477 104 L 474 113 L 474 298 L 454 302 L 430 312 L 429 311 L 429 209 L 427 202 L 423 195 L 416 188 L 409 184 L 402 182 L 389 182 L 379 186 L 369 195 L 365 202 L 363 210 L 363 362 L 349 379 L 322 404 L 321 288 L 319 281 L 310 269 L 299 263 L 283 262 L 272 266 L 263 274 L 257 288 L 257 441 L 253 444 L 238 448 L 224 450 L 188 450 L 181 452 L 176 455 L 170 462 L 168 468 L 168 478 L 175 490 L 181 494 L 188 496 L 237 496 L 253 493 L 257 494 L 258 598 L 263 608 L 270 615 L 282 620 L 297 620 L 308 615 L 316 607 L 321 594 L 321 466 L 349 447 L 362 435 L 363 436 L 363 693 L 366 704 L 376 716 L 389 722 L 404 722 L 417 716 L 426 706 L 430 694 L 429 615 L 432 614 L 450 624 L 473 630 L 474 796 L 478 808 L 486 817 L 499 823 L 509 824 L 516 823 L 527 818 L 537 807 L 540 798 L 540 631 L 569 626 L 585 620 L 586 692 L 591 707 L 598 715 L 612 722 L 627 722 L 636 719 L 643 714 L 649 707 L 653 696 L 653 574 L 680 549 L 693 539 L 694 593 L 700 608 L 709 616 L 719 620 L 734 620 L 742 617 L 748 613 L 754 606 L 759 592 L 759 501 L 762 499 L 780 496 L 838 495 L 846 491 L 851 486 L 854 479 L 855 470 L 851 460 L 846 455 L 834 450 L 759 450 L 758 286 L 753 275 L 743 266 L 732 262 L 720 262 L 710 266 L 700 275 L 694 289 L 694 474 L 673 489 L 654 507 L 653 506 L 653 209 L 648 196 L 640 188 L 626 182 L 613 182 L 598 189 L 591 197 L 586 212 L 586 308 L 585 309 L 563 301 L 541 298 L 540 112 L 536 102 L 526 92 L 513 87 Z
    M 491 334 L 522 333 L 540 336 L 564 344 L 585 356 L 604 372 L 622 395 L 634 420 L 640 444 L 641 477 L 639 491 L 632 514 L 618 539 L 595 564 L 580 575 L 558 586 L 531 593 L 501 594 L 481 591 L 457 583 L 435 571 L 427 565 L 408 546 L 398 532 L 387 510 L 380 484 L 379 448 L 382 430 L 388 412 L 403 386 L 423 365 L 444 350 L 461 342 Z
    M 499 382 L 482 386 L 468 393 L 456 402 L 446 413 L 436 431 L 433 440 L 431 451 L 431 472 L 435 490 L 440 501 L 448 513 L 461 526 L 473 534 L 487 540 L 503 543 L 520 543 L 540 538 L 552 532 L 563 524 L 572 515 L 581 502 L 588 486 L 591 473 L 591 452 L 586 433 L 580 421 L 572 410 L 562 400 L 554 394 L 531 384 L 522 382 Z" fill="url(#blueGradient)" fill-rule="evenodd"/>
</svg>
